<svg version="1" xmlns="http://www.w3.org/2000/svg" width="682.667" height="682.667" viewBox="0 0 512.000000 512.000000"><path d="M155.7.6c-.1.1-4 .5-8.7.8-9.8.8-11.7 1-26.5 3.6-15.6 2.8-16.1 2.9-19.2 4.1-1.6.6-2.9 1-3.1 1-1.5-.6-20.1 6.4-29.9 11.1-6.7 3.2-18.9 10.8-24.1 15.1-11.1 9.1-24.6 26.2-30.5 38.9-2.4 5.2-10 25.9-9.7 26.6.1.2-1.6 8.7-2.6 13.2-.4 1.4-.8 9.9-1.1 19l-.5 16.5 3.8 4.1c2.2 2.2 7.7 8.2 12.4 13.3 4.7 5.2 10.1 11.1 12.1 13.2 2 2.1 7.4 8 12 13 4.6 5.1 8.9 9.7 9.4 10.3.6.6 5.3 5.8 10.5 11.5s10.4 11.4 11.5 12.5c2 2.1 16.7 18.2 21.4 23.5 1.3 1.4 6.5 7.1 11.6 12.6 8.4 9.2 15.2 16.5 21.4 23.4 1.3 1.4 4.9 5.3 8 8.7 4.8 5.2 17.1 18.6 26.4 28.8 1.5 1.6 6.2 6.7 10.4 11.4 4.3 4.7 8.7 9.5 9.8 10.7 1.1 1.1 6.3 6.8 11.5 12.5s10.4 11.4 11.5 12.6c1.1 1.1 5.8 6.3 10.5 11.4 4.7 5.1 9.6 10.5 11 12 1.4 1.5 6.3 6.9 11 12 4.7 5.2 11.2 12.2 14.4 15.7 3.2 3.5 6.7 7.2 7.6 8.3.9 1 5.7 6.3 10.6 11.6 12.9 14 13.1 14.2 21.9 23.9 4.4 4.9 10.8 11.8 14.1 15.4 3.4 3.6 7.3 7.8 8.6 9.3 1.4 1.5 6 6.6 10.4 11.3l7.8 8.6 18.1-.2c48.8-.5 89.9-10.5 115.6-28 28.9-19.6 44.5-52.8 46.4-98.4l.4-11-14.5-16.5c-8-9.1-16.7-18.9-19.2-21.9-5.9-6.8-5.8-6.7-11.2-12.7-2.5-2.7-5.8-6.5-7.5-8.5-2.9-3.3-13.7-15.7-20.1-22.9-1.7-1.9-5.5-6.2-8.4-9.5-2.9-3.3-6.6-7.5-8.3-9.3-1.6-1.9-5.9-6.8-9.5-11-3.7-4.3-6.9-7.9-7.2-8.2-.5-.4-11.5-13-18.9-21.5-4.3-5-16.5-18.9-17.6-20.1-.6-.6-3.5-3.9-6.5-7.4-3-3.4-6.6-7.5-8-9-2.1-2.3-7.8-8.7-15.3-17.4-8.9-10.2-36-41-36.7-41.6-.3-.3-3-3.4-6-7s-5.8-6.7-6.1-7c-.3-.3-5.9-6.6-12.4-14-16.9-19.4-22.6-25.9-25.8-29.3-1.5-1.6-4.6-5.2-7-8-2.3-2.7-4.9-5.7-5.8-6.6-.8-.9-9.4-10.6-19-21.6-9.5-11-17.6-20.2-17.9-20.5-.3-.3-2.3-2.5-4.5-5s-6.7-7.6-10-11.3l-5.9-6.8-13.4.3c-7.3.1-13.4.3-13.5.4zM266.2 2.7c1.5 1.6 5.2 5.5 8.3 8.8 3.2 3.3 14.3 14.9 24.9 25.9C309.9 48.3 321 59.9 324 63c18.6 19.4 29.7 31 47.5 49.5 11 11.4 22.3 23.1 25 26 2.8 2.8 13.6 14.1 24.1 25.1 10.6 10.9 21.8 22.7 25 26.1 5.4 5.6 28.2 29.3 55.5 57.6l10.6 11V0H263.6l2.6 2.7zM0 382.9V512h238.3l-5.4-5.8c-12.8-13.7-19.7-21.2-23.4-25.3-4.8-5.3-14.8-16.2-22.4-24.4-3.1-3.3-8.1-8.7-11.1-12-4.4-4.9-20.6-22.5-28-30.5-.8-.9-3.7-4.1-6.5-7.1-6.3-6.8-24.9-27-33.5-36.4-3.6-3.9-10.5-11.5-15.5-16.9C87.6 348.2 81.9 342 80 340c-1.9-2.1-7.5-8.2-12.5-13.6-4.9-5.5-11.7-12.8-15-16.3-7.5-8.2-8-8.7-19.5-21.2-5.2-5.7-12.4-13.5-16-17.4-3.6-3.9-8.4-9.1-10.7-11.7-2.3-2.5-4.6-4.9-5.2-5.3-.8-.4-1.1 36.4-1.1 128.4z"/></svg>