<svg version="1" xmlns="http://www.w3.org/2000/svg" width="682.667" height="682.667" viewBox="0 0 512.000000 512.000000"><path d="M192 107.7c-51.3 5.2-78.3 27.7-84 69.8-.6 4.9-1 10.9-.8 13.2.3 4 4 8.2 95.8 108.3 52.5 57.3 96.2 105.1 97 106.1 1.5 1.9 2.2 2 17.5 1 19.3-1.2 31-3.2 43-7.2 22.3-7.4 35.9-20.9 42.3-42 2.2-7 4.6-24.7 4-29.1-.2-1.7-32.3-39-96.2-111.7L214.7 107l-9.6.2c-5.3 0-11.2.3-13.1.5zM269.6 115.2c6 6.1 115.3 120.1 135 140.8l2.4 2.5V107H261.5l8.1 8.2zM108 331.3V407h139.3l-2-2.3c-8.6-9.5-129.5-141.2-132.9-144.7l-4.4-4.5v75.8z"/></svg>